inDegrees=no
num_controls=7
num_derivatives=13
num_iterations=271
num_multipliers=7
num_parameters=0
num_slacks=7
num_states=26
objective=0.339089
objective_accelerations=0.000000
objective_balance=0.003607
objective_effort=0.083306
objective_height=0.224534
objective_ligament=0.027642
solver_duration=2749.735546
status=Solve_Succeeded
success=true
DataType=double
version=3
OpenSimVersion=4.5
endheader
time	/jointset/ground_pelvis/pelvis_tilt/value	/jointset/ground_pelvis/pelvis_tx/value	/jointset/ground_pelvis/pelvis_ty/value	/jointset/hip_r/hip_flexion_r/value	/jointset/hip_r/hip_adduction_r/value	/jointset/hip_r/hip_rotation_r/value	/jointset/back/lumbar_extension/value	/jointset/patellofemoral_r/patellar_flexion_r/value	/jointset/knee_r/knee_flexion_r/value	/jointset/knee_r/knee_adduction_r/value	/jointset/knee_r/knee_rotation_r/value	/jointset/ankle_r/ankle_angle_r/value	/jointset/subtalar_r/subtalar_angle_r/value	/jointset/ground_pelvis/pelvis_tilt/speed	/jointset/ground_pelvis/pelvis_tx/speed	/jointset/ground_pelvis/pelvis_ty/speed	/jointset/hip_r/hip_flexion_r/speed	/jointset/hip_r/hip_adduction_r/speed	/jointset/hip_r/hip_rotation_r/speed	/jointset/back/lumbar_extension/speed	/jointset/patellofemoral_r/patellar_flexion_r/speed	/jointset/knee_r/knee_flexion_r/speed	/jointset/knee_r/knee_adduction_r/speed	/jointset/knee_r/knee_rotation_r/speed	/jointset/ankle_r/ankle_angle_r/speed	/jointset/subtalar_r/subtalar_angle_r/speed	/forceset/tau_hip_flexion_r	/forceset/tau_hip_adduction_r	/forceset/tau_hip_rotation_r	/forceset/tau_knee_flexion_r	/forceset/tau_ankle_angle_r	/forceset/tau_subtalar_angle_r	/forceset/tau_lumbar_extension	lambda_cid13_p0	lambda_cid14_p0	lambda_cid14_p1	lambda_cid14_p2	lambda_cid14_p3	lambda_cid14_p4	lambda_cid14_p5	/jointset/ground_pelvis/pelvis_tilt/accel	/jointset/ground_pelvis/pelvis_tx/accel	/jointset/ground_pelvis/pelvis_ty/accel	/jointset/hip_r/hip_flexion_r/accel	/jointset/hip_r/hip_adduction_r/accel	/jointset/hip_r/hip_rotation_r/accel	/jointset/back/lumbar_extension/accel	/jointset/patellofemoral_r/patellar_flexion_r/accel	/jointset/knee_r/knee_flexion_r/accel	/jointset/knee_r/knee_adduction_r/accel	/jointset/knee_r/knee_rotation_r/accel	/jointset/ankle_r/ankle_angle_r/accel	/jointset/subtalar_r/subtalar_angle_r/accel	gamma_cid13_p0	gamma_cid14_p0	gamma_cid14_p1	gamma_cid14_p2	gamma_cid14_p3	gamma_cid14_p4	gamma_cid14_p5
1	-0.2127260558152693	-0.01311169119041034	0.3714904555741168	2.181423585759624	-0.2427792056000791	0.0471221194373101	-0.4359941987317074	2.18132915104903	2.181329151049073	-0.1734104421663186	0.172780172816057	0.4358446240893403	0.08983705876490213	-0.0008361017860644748	0.0002009910005198619	5.421793484989221e-05	4.196508979756441e-05	-0.0005126152038923968	-0.05203212676537316	0.000373113375627813	0.003080670950381452	0.003080670950381438	-0.04646608972544684	-0.0245125681389109	0.0007418205245759549	0.0005967046185175093	-0.1669108055740148	-0.03337730857198482	-0.03889220921004141	-0.5130380777954615	0.1022126155411769	-0.006933516992874975	0.2065284651975594	-0.02679954036821199	-10.92864448547725	-7.5629318730082	4.679141298052896	2.624070441166434	-694.5561711021759	48.9428114433536	0.1049100438204635	-0.03902768735280493	-0.007983376200254213	-0.1951555831060069	0.9379473405162893	1.295257086593412	-0.06230271621352142	-0.01800016668816001	-0.0180001666881602	0.4421311243447923	-1.330068725761429	0.2639045567861548	1.672343749726751	-6.464596514446032e-08	-1.649391817970866e-08	-1.75031217888446e-07	5.871171061607725e-08	-1.251029452360458e-07	7.992378405320977e-08	-6.42697189164294e-07
1.01	-0.2127296115122499	-0.01311156637179957	0.3714904963805332	2.181417105251212	-0.24274639179965	0.04673770059117262	-0.4359928784814383	2.181354213302143	2.181354213302175	-0.173782001123457	0.1725223383736825	0.4358610755755474	0.08990814389966524	7.856651108439953e-05	-0.0001686329198373416	-5.86843613611026e-05	-0.001064117535900847	0.006254327745510529	-0.01881311431717294	-3.321646085244755e-05	0.001522138592540779	0.00152213859254077	-0.02177444150435974	-0.02235960356351898	0.002169458332080901	0.01193655187341592	-0.1668800956188439	-0.03326575524864594	-0.03800383117245722	-0.5131898930402179	0.1022656610389115	-0.007687925992673668	0.2065644114747864	-0.02694595695905041	-10.97874902936361	-8.081749701046082	4.97020609593397	2.956723586074613	-694.6733988446576	47.63678031182511	0.07761143232381983	-0.03491364366500925	-0.01471847046187658	-0.02740029217794317	0.4229086351977236	5.240957541853977	-0.01842108821097731	-0.2861069601922794	-0.2861069601922928	4.393493647049651	1.692078714768658	0.02521210689507754	0.6121712796967119	-5.895583198992578e-07	-6.625977483176187e-07	-4.611893737773114e-07	-9.344144932682839e-08	-4.618636556510501e-07	5.915438241819292e-07	-2.656751256043567e-06
1.02	-0.2127254472843284	-0.01311493457225016	0.371489053201161	2.181407750778564	-0.2426705403971179	0.04686661871310218	-0.4359933461237048	2.181351424793706	2.181351424793733	-0.1737244812031726	0.1724268535101797	0.4358804071826499	0.09004210072024241	0.0007078831947109813	-0.0004976128117521519	-0.0002425792228205373	-0.0005328277566475226	0.008094905216729618	0.05063526684785354	1.553486884288957e-05	-0.002489481359710223	-0.002489481359710213	0.03934968575908668	0.007957347635039452	0.001317844706082096	0.01317104178132718	-0.1668493856636736	-0.03315420192530588	-0.03711545313487457	-0.5133417082849743	0.1023187065366477	-0.008442334992469781	0.2066003577520144	-0.02707743319392912	-11.02585933529672	-8.574764844931828	5.228282012933331	3.250946096578766	-694.7492133142308	46.52998814547695	0.04783972111601211	-0.03089888166433073	-0.02218188924994423	0.1323188978843478	-0.04732575512047273	8.541130829958661	0.02871351702159305	-0.5086176855702249	-0.5086176855702224	7.728626932816645	4.302728598871862	-0.1919457299146091	-0.3487277196706751	-5.181449361073575e-07	-5.910067785845795e-07	-3.92313407740448e-07	-8.745672689948477e-08	-3.938640494763998e-07	5.152386719941926e-07	-2.293047915060261e-06
1.03	-0.2127156394253111	-0.01312133416385029	0.3714857905912882	2.181407371285602	-0.242593638012162	0.04763078744700435	-0.435991936095095	2.181311173157122	2.181311173157122	-0.1730956000001252	0.1726420013234946	0.4358849859920412	0.09015777379668309	0.00128906982386818	-0.0007696941541900026	-0.0003833282321255108	0.0002965201147944389	0.007098396741587323	0.08558249790414611	0.0002476651460812494	-0.004590551908664814	-0.004590551908664848	0.07161219052166071	0.02731243037887516	-0.0003114814272883806	0.01006045441216638	-0.1670137807220799	-0.03272288623147034	-0.03959826153824476	-0.51345908297861	0.1025496400608747	-0.008959975386273134	0.2068974233387372	-0.026955867541535	-11.01275312964978	-8.866504752345836	5.353868608129549	2.876837076271683	-695.5044383864736	46.10554556774641	0.06843561549073997	-0.02353496715881678	-0.005943140799708597	0.03406328622574696	-0.1538942172027526	-1.520909847996062	0.01764192699796831	0.08478002735074214	0.08478002735072226	-1.247004219885072	-0.4121474381901511	-0.1349339835295807	-0.2777394157007583	-4.406465957996713e-07	-5.120923925263224e-07	-3.19814644541075e-07	-7.985835261121934e-08	-3.21734235989608e-07	4.329342831501622e-07	-1.905081743384466e-06
1.04	-0.2126989842036688	-0.01313008901020008	0.3714819361445163	2.181410449382242	-0.242532316876656	0.04824594267317821	-0.4359887689349292	2.18127903716843	2.181279037168409	-0.1725885070430246	0.172817890854184	0.4358759699543903	0.09024523796539977	0.002077355720041093	-0.0009686637616829204	-0.0003609466026210669	0.0001586901643007652	0.004978655326778244	0.0208325653020142	0.0003669611802436232	-0.0008663517812666712	-0.000866351781266679	0.01499203656972062	0.0001056911095281616	-0.001401124699912052	0.007529260236526237	-0.1671781757804868	-0.0322915705376336	-0.0420810699416163	-0.5135764576722459	0.1027805735851034	-0.009477615780073889	0.2071944889254611	-0.0268394938708739	-11.00090901192907	-9.16495889711881	5.487931688017305	2.521842178754859	-696.2725910543677	45.62544308176385	0.08925957451918233	-0.01627653467535918	0.01044423851193351	-0.06111666650275908	-0.2719723430538225	-11.39830190172622	0.006146668406382519	0.6564364497003206	0.6564364497003377	-10.04790481008616	-5.009635803764676	-0.0840091577652982	-0.2328490809665487	1.51023375620915e-07	1.748893084937646e-07	1.097600919054908e-07	2.52626385191907e-08	1.111240239505623e-07	-1.489751052837908e-07	6.50645180705305e-07
